<svg xmlns="http://www.w3.org/2000/svg" viewBox="0 0 640 176"><defs><style>.a{fill:#231f20;}</style></defs><title>logo alternative 1</title><path class="a" d="M40,43.19q10.32,0,17.07,6.52,6.74,6.36,7,17.16H49.48q-.13-10.2-9.77-10.21A9.32,9.32,0,0,0,32.89,59a8.54,8.54,0,0,0-2.41,6.36,7.26,7.26,0,0,0,2.62,6.07q2.61,2.07,10,3.85Q55.39,78,60.63,83.23t5.23,14.58q0,10.95-7,17.24t-18.45,6.29q-12.1,0-19.06-6.51T14.1,97.07H28.83a10.87,10.87,0,0,0,3.24,8.06q3.09,2.9,8.6,2.89,4.95,0,7.71-2.37a8,8,0,0,0,2.75-6.36,8.09,8.09,0,0,0-2.89-6.74q-2.9-2.3-10.74-4.07Q26.22,86,21,80.79T15.76,66.73a23.45,23.45,0,0,1,6.33-16.58Q28.56,43.19,40,43.19Z"/><path class="a" d="M110.07,43.19a28.76,28.76,0,0,1,23.4,11.25q9.08,11.1,9.08,27.83t-9.22,28a28.73,28.73,0,0,1-23.26,11.1,28,28,0,0,1-13.22-3A22.23,22.23,0,0,1,88,110.39v41.14H73.32V44.82h12.8l1,10.66Q94.79,43.2,110.07,43.19ZM107.45,58q-7.85,0-13.9,6.52-5.92,6.36-5.92,17.16v.89q.27,11,5.92,17.47,6.06,6.51,13.76,6.51a17.55,17.55,0,0,0,14.32-6.81q5.78-7,5.78-17.46,0-10.81-5.57-17.54A17.84,17.84,0,0,0,107.45,58Z"/><path class="a" d="M181.91,43.19q14.6,0,23.26,10.07t8.67,28.41v6.07H163.06q.54,9,5.85,14.36a18.13,18.13,0,0,0,13.42,5.33q12.66,0,16.65-10.66h14.31Q210,108.62,201.94,115t-20,6.37q-15.14,0-24.64-10.66t-9.35-28.27q0-17.16,9.35-28.12T181.91,43.19ZM194.23,62a16.35,16.35,0,0,0-12.46-5,17.35,17.35,0,0,0-12.8,5.1,20.74,20.74,0,0,0-5.78,13.4h35.93Q199,67,194.23,62Z"/><path class="a" d="M254.17,43.19q12.53,0,20.92,7t10.6,19.54H271.38a16.33,16.33,0,0,0-6.27-8.88,18.14,18.14,0,0,0-10.66-3.11q-8.26,0-13.91,7T235,82.41q0,10.66,5.5,17.47a17.52,17.52,0,0,0,14.18,7,17.72,17.72,0,0,0,10.6-3.25A15.48,15.48,0,0,0,271.38,95h14.45q-2.47,12.58-11,19.47t-20.65,6.88q-15,0-24.64-10.81T219.9,82.41q0-17.16,9.63-28.12A31.44,31.44,0,0,1,254.17,43.19Z"/><path class="a" d="M299.45,26.47h14.73L314,44.82H331V59.33H313.9l-.27,35.52c0,4.24.69,7.23,2.06,9s3.86,2.59,7.44,2.59a24.84,24.84,0,0,0,7.84-1.18v13.91a29.79,29.79,0,0,1-10.73,1.63q-10.87,0-16.11-5.48t-5.09-17l.27-38.92H287.06V44.82h12.25Z"/><path class="a" d="M375,44.08V59.92q-8.67,0-13.9,5-5.78,5.19-6.05,15.84v38.92H340.47V44.82h12.8l1.24,12.73a19.27,19.27,0,0,1,7.29-9.77Q367,44.09,375,44.08Z"/><path class="a" d="M386.3,54.15q10.18-10.95,25.74-11t25.74,11Q448,65.1,448,82.27t-10.19,28.12q-10.18,11-25.74,11t-25.74-11q-10.05-10.81-10-28.12T386.3,54.15ZM427,64.65a18.2,18.2,0,0,0-14.86-7,18.6,18.6,0,0,0-15,7q-5.79,6.81-5.78,17.62t5.78,17.61a18.57,18.57,0,0,0,15,7,18.18,18.18,0,0,0,14.86-7q5.79-6.81,5.79-17.61T427,64.65Z"/><path class="a" d="M529.55,43.19q10.74,0,16.52,7.48t5.78,20.5v48.54H537.26V74.27q0-15.67-11.7-15.68-6.34,0-10.33,5.69t-4,15.62v39.81H496.65V74.27q0-15.67-11.7-15.68a11.93,11.93,0,0,0-10.32,5.62q-3.86,5.63-3.85,15.69v39.81H456.19V44.82h12.66L470,54.89q5.78-11.7,18.86-11.7,15,0,20.09,13.92Q515.65,43.19,529.55,43.19Z"/><path class="a" d="M594,43.19q14.6,0,23.26,10.07t8.68,28.41v6.07H575.11q.54,9,5.85,14.36a18.13,18.13,0,0,0,13.42,5.33q12.66,0,16.65-10.66h14.31Q622,108.62,614,115t-20,6.37q-15.13,0-24.63-10.66T560,82.41q0-17.16,9.36-28.12T594,43.19ZM606.28,62a16.34,16.34,0,0,0-12.45-5A17.37,17.37,0,0,0,581,62.06a20.74,20.74,0,0,0-5.78,13.4h35.93Q611,67,606.28,62Z"/></svg>